<svg width="280" height="100" viewBox="100 0 280 100" xmlns="http://www.w3.org/2000/svg">
  <rect x="100" y="0" width="280" height="100" fill="#000000"></rect>

  <rect x="100.00" y="44.50" width="6.71" height="11.00" rx="3.36" ry="3.36" fill="#ffffff"></rect>
  <rect x="112.42" y="30.50" width="6.71" height="39.00" rx="3.36" ry="3.36" fill="#ffffff"></rect>
  <rect x="124.84" y="41.00" width="6.71" height="18.00" rx="3.36" ry="3.36" fill="#ffffff"></rect>
  <rect x="137.27" y="41.00" width="6.71" height="18.00" rx="3.36" ry="3.36" fill="#ffffff"></rect>
  <rect x="149.69" y="27.00" width="6.71" height="46.00" rx="3.36" ry="3.36" fill="#ffffff"></rect>
  <rect x="162.11" y="23.50" width="6.71" height="53.00" rx="3.36" ry="3.36" fill="#ffffff"></rect>
  <rect x="174.53" y="41.00" width="6.71" height="18.00" rx="3.36" ry="3.36" fill="#ffffff"></rect>
  <rect x="186.96" y="34.00" width="6.71" height="32.00" rx="3.36" ry="3.36" fill="#ffffff"></rect>
  <rect x="199.38" y="41.00" width="6.71" height="18.00" rx="3.36" ry="3.36" fill="#ffffff"></rect>
  <rect x="211.80" y="27.00" width="6.71" height="46.00" rx="3.36" ry="3.36" fill="#ffffff"></rect>
  <rect x="224.22" y="41.00" width="6.71" height="18.00" rx="3.36" ry="3.36" fill="#ffffff"></rect>
  <rect x="236.64" y="20.00" width="6.71" height="60.00" rx="3.36" ry="3.36" fill="#ffffff"></rect>
  <rect x="249.07" y="41.00" width="6.71" height="18.00" rx="3.36" ry="3.36" fill="#ffffff"></rect>
  <rect x="261.49" y="30.50" width="6.71" height="39.00" rx="3.36" ry="3.36" fill="#ffffff"></rect>
  <rect x="273.91" y="34.00" width="6.71" height="32.00" rx="3.36" ry="3.36" fill="#ffffff"></rect>
  <rect x="286.33" y="20.00" width="6.71" height="60.00" rx="3.36" ry="3.36" fill="#ffffff"></rect>
  <rect x="298.76" y="34.00" width="6.71" height="32.00" rx="3.36" ry="3.36" fill="#ffffff"></rect>
  <rect x="311.18" y="34.00" width="6.71" height="32.00" rx="3.36" ry="3.36" fill="#ffffff"></rect>
  <rect x="323.60" y="37.50" width="6.71" height="25.00" rx="3.36" ry="3.36" fill="#ffffff"></rect>
  <rect x="336.02" y="41.00" width="6.71" height="18.00" rx="3.36" ry="3.36" fill="#ffffff"></rect>
  <rect x="348.44" y="34.00" width="6.71" height="32.00" rx="3.36" ry="3.36" fill="#ffffff"></rect>
  <rect x="360.87" y="20.00" width="6.71" height="60.00" rx="3.36" ry="3.36" fill="#ffffff"></rect>
  <rect x="373.29" y="44.50" width="6.71" height="11.00" rx="3.36" ry="3.36" fill="#ffffff"></rect>
</svg>