<svg width="935" height="287" viewBox="0 0 935 287" fill="none" xmlns="http://www.w3.org/2000/svg">
<path d="M151.844 171.467L154.549 171.467C163.423 171.467 170.617 164.273 170.617 155.399L170.617 131.78C170.617 122.906 163.423 115.713 154.549 115.713L151.844 115.712C142.971 115.712 135.777 122.906 135.777 131.78L135.777 155.399C135.777 164.273 142.971 171.467 151.844 171.467Z" fill="#D2DCE7"/>
<path d="M799.125 286.872L801.829 286.872C810.703 286.872 817.897 279.678 817.897 270.805L817.897 16.0674C817.897 7.19354 810.703 -0.000122699 801.829 -0.000123475L799.125 -0.000123711C790.251 -0.000124487 783.057 7.19354 783.057 16.0674L783.057 270.805C783.057 279.678 790.251 286.872 799.125 286.872Z" fill="#D2DCE7"/>
<path d="M680.184 286.872L682.889 286.872C691.762 286.872 698.956 279.678 698.956 270.805L698.956 16.0674C698.956 7.19354 691.762 -0.000122699 682.889 -0.000123475L680.184 -0.000123711C671.31 -0.000124487 664.116 7.19354 664.116 16.0674L664.116 270.805C664.116 279.678 671.31 286.872 680.184 286.872Z" fill="#D2DCE7"/>
<path d="M328.264 286.872L330.969 286.872C339.843 286.872 347.037 279.678 347.037 270.805L347.037 16.0674C347.037 7.19354 339.843 -0.000122699 330.969 -0.000123475L328.264 -0.000123711C319.391 -0.000124487 312.197 7.19354 312.197 16.0674L312.197 270.805C312.197 279.678 319.391 286.872 328.264 286.872Z" fill="#D2DCE7"/>
<path d="M504.913 269.612L507.618 269.612C516.492 269.612 523.686 262.419 523.686 253.545L523.686 31.6255C523.686 22.7517 516.492 15.558 507.618 15.558L504.913 15.558C496.039 15.558 488.846 22.7517 488.846 31.6255L488.846 253.545C488.846 262.419 496.039 269.612 504.913 269.612Z" fill="#D2DCE7"/>
<path d="M563.971 252.876L566.676 252.876C575.55 252.876 582.744 245.682 582.744 236.808L582.744 48.9256C582.744 40.0517 575.55 32.858 566.676 32.858L563.971 32.858C555.098 32.858 547.904 40.0517 547.904 48.9256L547.904 236.808C547.904 245.682 555.098 252.876 563.971 252.876Z" fill="#D2DCE7"/>
<path d="M388.6 252.876L391.305 252.876C400.178 252.876 407.372 245.682 407.372 236.808L407.372 48.9256C407.372 40.0517 400.178 32.858 391.305 32.858L388.6 32.858C379.726 32.858 372.532 40.0517 372.532 48.9256L372.532 236.808C372.532 245.682 379.726 252.876 388.6 252.876Z" fill="#D2DCE7"/>
<path d="M270.128 235.402L272.833 235.402C281.707 235.402 288.9 228.209 288.9 219.335L288.9 66.5863C288.9 57.7124 281.707 50.5187 272.833 50.5187L270.128 50.5187C261.254 50.5187 254.061 57.7124 254.061 66.5863L254.061 219.335C254.061 228.209 261.254 235.402 270.128 235.402Z" fill="#D2DCE7"/>
<path d="M916.068 202.946L918.772 202.946C927.646 202.946 934.84 195.753 934.84 186.879L934.84 98.8823C934.84 90.0085 927.646 82.8148 918.772 82.8148L916.068 82.8148C907.194 82.8148 900 90.0085 900 98.8823L900 186.879C900 195.753 907.194 202.946 916.068 202.946Z" fill="#D2DCE7"/>
<path d="M445.691 202.946L448.395 202.946C457.269 202.946 464.463 195.753 464.463 186.879L464.463 98.8823C464.463 90.0085 457.269 82.8148 448.395 82.8148L445.691 82.8148C436.817 82.8148 429.623 90.0085 429.623 98.8823L429.623 186.879C429.623 195.753 436.817 202.946 445.691 202.946Z" fill="#D2DCE7"/>
<path d="M622.235 186.57L624.939 186.57C633.813 186.57 641.007 179.377 641.007 170.503L641.007 113.744C641.007 104.87 633.813 97.6768 624.939 97.6768L622.235 97.6768C613.361 97.6768 606.167 104.87 606.167 113.744L606.167 170.503C606.167 179.377 613.361 186.57 622.235 186.57Z" fill="#D2DCE7"/>
<path d="M94.0046 186.57L96.7093 186.57C105.583 186.57 112.777 179.377 112.777 170.503L112.777 113.744C112.777 104.87 105.583 97.6768 96.7093 97.6768L94.0046 97.6768C85.1308 97.6768 77.9371 104.87 77.9371 113.744L77.9371 170.503C77.9371 179.377 85.1308 186.57 94.0046 186.57Z" fill="#D2DCE7"/>
<path d="M858.183 219.268L860.888 219.268C869.761 219.268 876.955 212.074 876.955 203.2L876.955 83.1355C876.955 74.2617 869.761 67.068 860.888 67.068L858.183 67.068C849.309 67.068 842.115 74.2617 842.115 83.1355L842.115 203.2C842.115 212.074 849.309 219.268 858.183 219.268Z" fill="#D2DCE7"/>
<path d="M739.647 219.268L742.352 219.268C751.226 219.268 758.419 212.074 758.419 203.2L758.419 83.1355C758.419 74.2617 751.226 67.068 742.352 67.068L739.647 67.068C730.773 67.068 723.58 74.2617 723.58 83.1355L723.58 203.2C723.58 212.074 730.773 219.268 739.647 219.268Z" fill="#D2DCE7"/>
<path d="M211.188 219.268L213.892 219.268C222.766 219.268 229.96 212.074 229.96 203.2L229.96 83.1355C229.96 74.2617 222.766 67.068 213.892 67.068L211.188 67.068C202.314 67.068 195.12 74.2617 195.12 83.1355L195.12 203.2C195.12 212.074 202.314 219.268 211.188 219.268Z" fill="#D2DCE7"/>
<path d="M36.0046 219.268L38.7093 219.268C47.5832 219.268 54.7769 212.074 54.7769 203.2L54.7769 83.1355C54.7769 74.2617 47.5832 67.068 38.7093 67.068L36.0046 67.068C27.1308 67.068 19.9371 74.2617 19.9371 83.1355L19.9371 203.2C19.9371 212.074 27.1308 219.268 36.0046 219.268Z" fill="#D2DCE7"/>
</svg>
